<svg xmlns="http://www.w3.org/2000/svg" viewBox="0 0 100 100">
  <rect width="100" height="100" rx="20" fill="#1565C0"/>
  <rect x="15" y="15" width="25" height="25" rx="4" fill="white"/>
  <rect x="60" y="15" width="25" height="25" rx="4" fill="white"/>
  <rect x="15" y="60" width="25" height="25" rx="4" fill="white"/>
  <rect x="22" y="22" width="11" height="11" rx="2" fill="#1565C0"/>
  <rect x="67" y="22" width="11" height="11" rx="2" fill="#1565C0"/>
  <rect x="22" y="67" width="11" height="11" rx="2" fill="#1565C0"/>
  <rect x="60" y="60" width="8" height="8" rx="1" fill="white"/>
  <rect x="72" y="60" width="8" height="8" rx="1" fill="white"/>
  <rect x="60" y="72" width="8" height="8" rx="1" fill="white"/>
  <rect x="77" y="72" width="8" height="8" rx="1" fill="white"/>
  <rect x="72" y="77" width="8" height="8" rx="1" fill="white"/>
  <rect x="84" y="60" width="4" height="4" rx="0.5" fill="white"/>
  <rect x="84" y="68" width="4" height="4" rx="0.5" fill="white"/>
  <rect x="84" y="84" width="4" height="4" rx="0.5" fill="white"/>
</svg>
